<?xml version="1.0" encoding="UTF-8"?><svg id="Layer_1" xmlns="http://www.w3.org/2000/svg" viewBox="0 0 209.98 49.23"><defs><style>.cls-1{fill:#ba9e6f;}</style></defs><g><path class="cls-1" d="M148.29,37.78v5.26h-5.37v-5.26h5.37Z"/><path class="cls-1" d="M152.87,25.38h5.54l3.11,4.61,3.07-4.61h5.37l-5.81,8.27,6.53,9.4h-5.54l-3.69-5.57-3.69,5.57h-5.44l6.36-9.3-5.81-8.37Z"/><path class="cls-1" d="M181.51,48.31c-.93,.62-2.23,.92-3.9,.92-.5,0-1-.02-1.49-.05s-.99-.07-1.49-.12v-4c.45,.05,.92,.09,1.4,.14,.48,.04,.96,.05,1.44,.03,.64-.07,1.11-.32,1.42-.75,.31-.43,.46-.91,.46-1.44,0-.39-.07-.75-.2-1.09l-6.19-16.58h5.16l4,12.1h.07l3.86-12.1h5.02l-7.38,19.86c-.52,1.44-1.25,2.46-2.18,3.08Z"/><path class="cls-1" d="M202.94,29.03h-8.51v-3.66h14.9v3.66l-9.19,10.36h9.84v3.66h-16.24v-3.66l9.2-10.36Z"/></g><g><path class="cls-1" d="M24.31,21.24c1.32-1.89,2.07-4.13,2.07-6.6,0-6.49-5.28-11.77-11.77-11.77H0V43.05H16.9c6.72,0,12.17-5.4,12.17-12.17,0-3.9-1.83-7.4-4.76-9.64ZM7.12,9.58h7.15c2.24,0,4.65,1.72,4.65,4.53s-2.41,4.65-4.65,4.65H7.12V9.58Zm9.67,26.64H7.29v-9.7h9.5c2.7,0,4.94,2.18,4.94,4.88s-2.24,4.82-4.94,4.82Z"/><path class="cls-1" d="M65.41,0c-12.65,0-22.96,10.31-22.96,22.96s10.31,22.96,22.96,22.96,22.96-10.31,22.96-22.96S78.06,0,65.41,0Zm2.86,24.62v8.83h-5.73v-8.83c-2.11-1.05-3.56-3.22-3.56-5.74,0-3.55,2.87-6.42,6.42-6.42s6.42,2.87,6.42,6.42c0,2.52-1.44,4.69-3.55,5.74Z"/><polygon class="cls-1" points="121.42 18.6 135.48 2.87 124.63 2.87 112.86 15.84 112.86 2.87 104.83 2.87 104.83 43.05 112.86 43.05 112.86 27.84 115.96 24.68 126.24 43.05 135.82 43.05 121.42 18.6"/></g></svg>