<svg width="24" height="24" viewBox="0 0 24 24" fill="none" xmlns="http://www.w3.org/2000/svg">
<path fill-rule="evenodd" clip-rule="evenodd" d="M17.32 20.4822C17.5883 20.6722 17.9341 20.7197 18.2425 20.603C18.5508 20.4855 18.7775 20.2222 18.8458 19.903C19.5699 16.4998 21.3266 7.88586 21.9857 4.7901C22.0357 4.55678 21.9524 4.31428 21.769 4.15845C21.5857 4.00262 21.3316 3.95762 21.1049 4.04179C17.6108 5.33509 6.85021 9.37249 2.45199 10.9999C2.17283 11.1033 1.99117 11.3716 2.00033 11.6657C2.01033 11.9607 2.20866 12.2166 2.49449 12.3024C4.46694 12.8924 7.05604 13.7132 7.05604 13.7132C7.05604 13.7132 8.26601 17.3673 8.89683 19.2256C8.976 19.4589 9.15849 19.6422 9.39932 19.7056C9.63931 19.7681 9.89598 19.7022 10.0751 19.5331C11.0885 18.5764 12.6551 17.0973 12.6551 17.0973C12.6551 17.0973 15.6317 19.2797 17.32 20.4822ZM8.14518 13.2515L9.54432 17.8664L9.85514 14.944C9.85514 14.944 15.2609 10.0683 18.3425 7.28921C18.4325 7.20755 18.445 7.07088 18.37 6.97505C18.2958 6.87922 18.1591 6.85672 18.0566 6.92172C14.4851 9.2025 8.14518 13.2515 8.14518 13.2515Z" fill="white"/>
</svg>
